{"glyphs":{":":{"x_min":0,"x_max":290,"ha":290,"o":"m 87 150 q 120 150 141 130 q 162 109 162 78 q 162 38 138 12 q 114 -13 77 -13 q 43 -13 21 8 q 0 30 0 64 q 0 100 26 125 q 51 150 87 150 z m 166 467 q 199 467 220 446 q 241 426 241 394 q 241 354 217 329 q 193 303 156 303 q 122 303 101 324 q 80 346 80 380 q 80 416 105 441 q 130 467 166 467 z"},"$":{"x_min":0,"x_max":580,"ha":580,"o":"m 306 269 l 255 38 q 307 40 339 70 q 371 100 371 145 q 371 171 355 201 q 340 231 306 269 z m 350 660 q 301 659 274 634 q 247 609 247 565 q 247 547 261 524 q 275 500 307 466 z m 374 770 l 417 770 l 401 695 q 411 693 430 688 q 478 675 500 675 q 513 675 524 677 q 535 680 544 684 q 535 628 528 587 q 522 546 518 514 l 486 514 l 486 527 q 486 583 462 616 q 438 649 392 658 l 343 430 q 420 351 450 299 q 480 247 480 197 q 480 104 415 47 q 351 -11 246 -11 l 244 -11 l 212 -156 l 169 -156 l 202 -5 q 191 -2 170 3 q 99 23 70 23 q 64 23 47 22 q 40 21 36 21 q 44 69 50 119 q 56 169 61 224 l 94 224 l 94 214 q 94 141 125 96 q 155 52 213 42 l 271 306 q 195 383 168 430 q 140 477 140 522 q 140 602 198 650 q 255 699 350 699 l 358 699 z"},"?":{"x_min":0,"x_max":554,"ha":554,"o":"m 187 150 q 220 150 240 130 q 261 110 261 78 q 261 37 237 12 q 212 -13 172 -13 q 141 -13 121 9 q 100 31 100 64 q 100 100 126 125 q 151 150 187 150 z m 241 227 l 209 233 q 222 310 275 378 q 279 383 281 385 l 289 395 q 374 504 374 575 q 374 622 348 655 q 322 687 286 687 q 268 687 255 674 q 243 660 243 639 q 243 631 247 612 q 250 593 250 582 q 250 553 230 535 q 211 517 178 517 q 150 517 133 531 q 115 545 115 567 q 115 636 173 682 q 231 728 320 728 q 409 728 462 685 q 515 642 515 569 q 515 538 502 508 q 490 477 465 448 q 442 422 384 381 q 361 365 350 356 q 310 326 283 294 q 257 262 241 227 z"},"<":{"x_min":0,"x_max":833,"ha":833,"o":"m 704 583 l 704 476 l 268 298 l 704 120 l 704 13 l 129 250 l 129 347 z"},"'":{"x_min":0,"x_max":178,"ha":178,"o":"m 99 416 l 79 416 l 40 641 q 39 647 39 651 q 38 656 38 659 q 38 685 52 700 q 65 715 89 715 q 112 715 126 701 q 139 687 139 661 q 139 653 139 649 q 139 645 138 641 z"},"=":{"x_min":0,"x_max":833,"ha":833,"o":"m 124 242 l 709 242 l 709 145 l 124 145 z m 124 452 l 709 452 l 709 355 l 124 355 z"},"a":{"x_min":0,"x_max":596,"ha":596,"o":"m 354 347 l 354 355 q 354 397 339 420 q 323 443 295 443 q 281 443 267 437 q 252 430 241 419 q 222 401 205 376 q 188 351 173 317 q 151 271 139 228 q 128 186 128 152 q 128 114 142 94 q 156 73 181 73 q 208 73 240 106 q 271 139 317 216 z m 375 414 l 391 480 l 525 480 l 433 151 q 430 140 429 134 q 428 127 428 122 q 428 112 432 107 q 437 102 445 102 q 459 102 476 120 q 492 138 509 171 l 534 159 q 497 73 451 30 q 405 -13 352 -13 q 321 -13 303 4 q 285 22 285 52 q 285 64 287 81 q 289 98 295 129 q 250 54 205 20 q 161 -13 108 -13 q 52 -13 19 23 q -13 60 -13 124 q -13 188 17 260 q 47 331 98 387 q 139 433 186 456 q 232 480 281 480 q 315 480 339 463 q 364 445 375 414 z"},"L":{"x_min":0,"x_max":638,"ha":638,"o":"m 123 717 q 178 714 219 713 q 260 712 294 712 q 325 712 362 713 q 399 714 448 717 l 448 686 q 404 683 386 667 q 367 651 355 597 l 241 82 q 240 78 239 75 q 239 71 239 66 q 239 57 245 53 q 252 50 268 50 l 302 50 q 378 50 444 91 q 511 133 558 209 l 590 209 q 572 163 553 112 q 534 60 512 0 l 139 0 q 93 0 51 -1 q 8 -1 -32 -3 l -32 29 q 21 29 43 45 q 64 61 77 118 l 184 603 l 184 604 q 191 636 191 648 q 191 668 178 676 q 165 684 123 686 z"},"3":{"x_min":0,"x_max":580,"ha":580,"o":"m 189 686 l 574 686 l 287 412 l 299 412 q 385 412 435 366 q 486 319 486 241 q 486 193 465 146 q 444 100 406 62 q 369 25 320 6 q 271 -13 212 -13 q 136 -13 78 20 q 20 53 -15 117 l 13 139 q 50 91 86 70 q 122 48 164 48 q 230 48 277 104 q 324 161 324 242 q 324 299 292 330 q 260 361 201 361 q 191 361 173 359 q 171 359 170 359 l 378 559 l 199 559 q 173 559 165 552 q 156 545 147 526 l 108 526 q 131 570 151 610 q 171 649 189 686 z"},";":{"x_min":0,"x_max":290,"ha":290,"o":"m -63 -150 l -68 -121 q -10 -108 28 -80 q 65 -51 79 -7 q 68 -11 60 -13 q 52 -15 46 -15 q 21 -15 8 2 q -6 20 -6 51 q -6 89 20 115 q 46 142 84 142 q 117 142 139 118 q 161 93 161 56 q 161 -23 101 -79 q 40 -135 -63 -150 z m 158 467 q 191 467 212 446 q 233 426 233 394 q 233 354 209 329 q 185 303 148 303 q 114 303 93 324 q 72 346 72 380 q 72 416 97 441 q 123 467 158 467 z"},"J":{"x_min":0,"x_max":427,"ha":427,"o":"m 123 717 q 178 714 219 713 q 260 712 294 712 q 325 712 362 713 q 399 714 448 717 l 448 686 q 404 683 386 667 q 367 651 355 597 l 245 102 q 221 -7 189 -58 q 157 -109 101 -137 q 62 -157 17 -167 q -27 -177 -74 -177 l -81 -177 l -81 -145 q 22 -132 65 64 l 66 69 l 184 603 q 188 621 189 631 q 191 641 191 648 q 191 668 178 676 q 165 684 123 686 z"},"V":{"x_min":0,"x_max":646,"ha":646,"o":"m 34 717 q 88 714 124 713 q 159 712 184 712 q 231 712 269 713 q 306 714 339 717 l 339 686 q 294 683 280 675 q 265 667 265 648 q 265 643 266 637 q 266 631 267 625 l 329 190 l 585 618 q 594 634 599 644 q 603 655 603 662 q 603 673 590 678 q 577 684 542 686 l 542 717 q 566 714 591 713 q 616 712 641 712 q 663 712 688 713 q 712 714 741 717 l 741 686 l 739 686 q 708 686 685 668 q 663 650 627 590 l 266 -13 l 207 -13 l 110 595 q 110 597 109 603 q 97 680 34 686 z"},"\"":{"x_min":0,"x_max":345,"ha":345,"o":"m 265 416 l 245 416 l 206 641 q 205 647 205 651 q 204 656 204 659 q 204 685 218 700 q 231 715 255 715 q 279 715 292 700 q 306 686 306 661 q 306 658 306 654 q 305 649 304 641 z m 99 416 l 79 416 l 40 641 q 40 645 39 648 q 39 652 39 659 q 39 685 53 700 q 66 715 89 715 q 112 715 126 701 q 139 687 139 661 q 139 653 139 649 q 139 645 138 641 z"},"7":{"x_min":0,"x_max":580,"ha":580,"o":"m 168 686 l 592 686 q 496 532 413 360 q 331 188 263 0 l 109 0 l 430 551 l 203 551 q 177 551 168 544 q 160 537 151 518 l 112 518 q 128 557 142 599 q 156 642 168 686 z"},"S":{"x_min":0,"x_max":596,"ha":596,"o":"m 553 705 q 541 649 521 550 q 517 530 515 520 l 484 520 q 478 595 442 637 q 405 680 348 680 q 305 680 275 654 q 246 627 246 589 q 246 546 324 479 q 335 469 341 464 l 351 456 q 511 317 511 223 q 511 120 444 53 q 376 -13 270 -13 q 224 -13 160 4 q 95 22 72 22 q 63 22 48 19 q 33 15 10 8 q 32 113 43 167 q 55 220 64 266 l 97 266 q 102 165 147 108 q 193 52 269 52 q 315 52 345 83 q 375 113 375 160 q 375 187 358 213 q 341 238 278 293 q 267 303 246 320 q 112 433 112 527 q 112 617 172 673 q 232 728 330 728 q 376 728 435 713 q 494 698 510 698 q 521 698 532 700 q 542 702 553 705 z"},"}":{"x_min":0,"x_max":500,"ha":500,"o":"m 84 740 q 199 740 241 705 q 283 669 283 571 l 283 477 q 283 396 311 366 q 338 336 414 329 l 414 292 q 338 285 311 255 q 283 225 283 144 l 283 50 q 283 -47 242 -83 q 200 -119 90 -119 l 84 -119 l 84 -90 q 142 -89 164 -63 q 186 -38 186 39 l 186 105 q 186 215 212 255 q 238 294 308 310 q 238 326 212 366 q 186 406 186 516 l 186 581 q 186 657 164 683 q 142 709 84 710 z"},"Z":{"x_min":0,"x_max":685,"ha":685,"o":"m 151 717 q 212 714 274 713 q 337 712 405 712 q 498 712 570 713 q 642 714 705 717 l 202 50 l 353 50 q 456 50 506 84 q 556 118 588 207 l 619 207 q 610 167 601 119 q 592 70 579 -3 q 546 -2 486 0 q 341 3 293 3 q 244 3 87 0 q 13 -2 -29 -3 l 473 665 l 366 665 q 273 665 224 635 q 174 606 127 529 l 95 529 q 111 577 125 623 q 139 670 151 717 z"},"x":{"x_min":0,"x_max":517,"ha":517,"o":"m 208 481 q 214 474 220 458 q 227 443 233 423 l 264 317 l 311 385 q 345 433 376 457 q 407 481 436 481 q 461 481 476 463 q 491 446 491 416 q 491 378 475 360 q 458 342 424 342 q 403 342 389 364 q 375 386 369 386 q 362 386 352 377 q 343 369 329 350 l 275 277 l 316 144 q 325 115 336 99 q 348 84 361 84 q 374 84 390 101 q 406 118 427 154 l 451 145 q 425 69 385 28 q 346 -13 300 -13 q 261 -13 240 7 q 218 28 203 78 l 175 174 l 135 103 q 101 41 70 14 q 40 -13 6 -13 q -21 -13 -36 3 q -51 20 -51 50 q -51 85 -33 106 q -16 127 12 127 q 35 127 50 107 q 64 87 69 87 q 76 87 90 102 q 104 116 117 139 l 162 216 l 118 366 q 111 391 104 400 q 98 409 88 409 q 83 409 47 404 l 44 404 l 35 428 z"},")":{"x_min":0,"x_max":435,"ha":435,"o":"m 173 728 q 234 647 264 567 q 293 487 293 400 q 293 248 217 107 q 141 -34 -13 -166 l -37 -146 q 66 -32 121 130 q 176 291 176 480 q 176 555 168 614 q 160 672 144 714 z"},"&":{"x_min":0,"x_max":831,"ha":831,"o":"m 267 368 q 212 337 186 299 q 159 261 159 213 q 159 155 197 115 q 235 74 289 74 q 314 74 341 84 q 368 94 394 114 q 351 172 319 236 q 287 300 267 368 z m 390 430 q 408 368 432 313 q 456 259 487 212 q 532 264 555 301 q 578 338 578 359 q 578 371 567 377 q 556 384 534 386 l 534 418 q 554 416 583 414 q 613 413 662 413 q 695 413 717 414 q 738 416 753 418 l 753 386 q 720 382 695 369 q 670 355 649 328 q 645 323 603 267 q 560 211 521 167 q 559 113 597 87 q 636 61 677 61 q 704 61 730 70 q 756 78 781 95 l 800 66 q 759 28 711 8 q 662 -13 614 -13 q 561 -13 516 8 q 471 30 428 75 q 373 31 315 9 q 257 -13 200 -13 q 117 -13 65 33 q 13 80 13 155 q 13 230 73 295 q 133 359 256 416 q 252 441 250 459 q 248 477 248 491 q 248 593 312 661 q 375 728 471 728 q 526 728 558 703 q 590 678 590 635 q 590 575 541 525 q 492 475 390 430 z m 380 479 q 433 507 462 549 q 491 591 491 640 q 491 664 483 676 q 474 688 458 688 q 425 688 399 643 q 372 598 372 535 q 372 525 374 511 q 376 498 380 479 z"},"_":{"x_min":0,"x_max":500,"ha":500,"o":"m 0 -136 l 500 -136 l 500 -236 l 0 -236 z"},"v":{"x_min":0,"x_max":469,"ha":469,"o":"m 160 480 q 179 435 188 383 q 197 331 197 271 q 197 226 191 174 q 186 122 175 61 q 261 118 313 199 q 366 281 366 352 q 366 362 362 368 q 357 374 340 380 q 313 390 307 399 q 300 408 300 425 q 300 453 318 466 q 337 480 374 480 q 410 480 427 464 q 445 448 445 416 q 445 402 438 377 q 432 353 421 325 q 397 266 366 214 q 335 163 302 126 q 235 54 171 21 q 106 -12 32 -13 q 50 32 59 92 q 69 152 69 221 q 69 313 60 358 q 52 403 34 403 q 31 403 20 401 q 8 400 2 399 l -5 424 q 40 436 81 450 q 123 464 160 480 z"},"O":{"x_min":0,"x_max":804,"ha":804,"o":"m 612 484 q 612 583 578 631 q 544 679 475 679 q 432 679 392 656 q 352 633 315 587 q 267 526 237 435 q 208 344 208 252 q 208 160 248 108 q 287 55 356 55 q 400 55 441 81 q 482 107 517 157 q 563 224 587 308 q 612 392 612 484 z m 466 728 q 609 728 689 653 q 770 578 770 445 q 770 374 745 301 q 720 228 673 161 q 614 77 528 32 q 442 -13 342 -13 q 195 -13 115 61 q 34 135 34 269 q 34 341 59 414 q 83 487 131 554 q 190 638 277 683 q 363 728 466 728 z"},"(":{"x_min":0,"x_max":435,"ha":435,"o":"m 414 728 l 439 708 q 335 593 280 431 q 225 270 225 77 q 225 7 234 -52 q 242 -110 258 -152 l 229 -166 q 167 -85 137 -5 q 108 75 108 162 q 108 314 184 455 q 260 596 414 728 z"},"C":{"x_min":0,"x_max":678,"ha":678,"o":"m 681 697 q 663 622 650 566 q 638 510 628 463 l 597 467 l 597 479 q 597 575 562 627 q 528 679 464 679 q 421 679 380 655 q 339 630 303 584 q 258 526 233 450 q 208 375 208 296 q 208 188 252 129 q 296 69 376 69 q 436 69 486 104 q 536 140 574 209 l 605 197 q 556 94 480 40 q 404 -13 305 -13 q 181 -13 107 62 q 34 137 34 264 q 34 350 65 433 q 96 517 149 578 q 214 653 290 690 q 366 728 452 728 q 498 728 563 710 q 628 692 652 692 q 659 692 666 693 q 673 694 681 697 z"},"W":{"x_min":0,"x_max":965,"ha":965,"o":"m 38 717 q 93 714 128 713 q 164 712 189 712 q 236 712 273 713 q 310 714 343 717 l 343 686 q 298 683 284 675 q 270 667 270 648 q 270 644 271 638 q 271 632 272 625 l 317 234 l 485 530 l 476 595 q 468 653 453 668 q 438 683 400 686 l 400 717 q 455 714 490 713 q 525 712 551 712 q 598 712 635 713 q 672 714 705 717 l 705 686 q 661 684 646 675 q 631 667 631 648 q 631 644 631 638 q 632 633 633 625 l 678 240 l 891 618 l 893 622 q 910 651 910 662 q 910 673 897 678 q 884 684 849 686 l 849 717 q 874 714 898 713 q 922 712 947 712 q 970 712 995 713 q 1020 714 1047 717 l 1047 686 l 1045 686 q 1013 686 988 665 q 963 644 933 590 l 593 -13 l 556 -13 l 498 458 l 231 -13 l 194 -13 l 114 595 q 111 622 107 638 q 103 654 98 661 q 91 671 76 677 q 61 684 38 686 z"},"A":{"x_min":0,"x_max":646,"ha":646,"o":"m 321 524 l 162 269 l 351 269 z m 390 728 l 449 728 l 530 119 q 538 61 553 46 q 568 32 606 29 l 606 -3 q 550 0 513 1 q 475 3 455 3 q 426 3 387 1 q 349 0 301 -3 l 301 29 q 349 32 361 39 q 374 46 374 66 q 374 69 373 79 q 373 85 372 89 l 357 219 l 131 219 l 54 97 q 44 82 40 71 q 35 60 35 54 q 35 42 48 37 q 61 32 97 29 l 97 -3 q 86 -2 65 0 q 16 3 -1 3 q -25 3 -89 -2 q -97 -2 -102 -3 l -102 29 l -100 29 q -49 29 4 111 q 10 120 13 125 z"},"f":{"x_min":0,"x_max":329,"ha":329,"o":"m 254 479 l 247 443 l 335 443 l 335 400 l 237 400 l 208 268 q 149 0 85 -114 q 21 -227 -69 -227 q -108 -227 -132 -206 q -156 -185 -156 -149 q -156 -123 -140 -106 q -125 -89 -100 -89 q -85 -89 -71 -98 q -58 -106 -48 -122 q -45 -127 -41 -136 q -29 -158 -18 -158 q -4 -158 6 -142 q 16 -126 22 -94 q 22 -91 37 42 q 52 176 79 306 l 99 400 l 2 400 l 2 443 l 109 443 l 120 492 q 149 616 206 685 q 263 754 334 754 q 374 754 399 732 q 425 710 425 678 q 425 652 408 635 q 392 618 367 618 q 354 618 342 624 q 330 629 323 639 q 319 645 313 655 q 296 684 282 684 q 268 684 262 672 q 256 659 256 629 q 256 615 257 584 q 259 554 259 538 q 259 523 258 509 q 256 494 254 479 z"},"Q":{"x_min":0,"x_max":804,"ha":804,"o":"m 561 53 q 600 13 641 -9 q 682 -31 722 -34 l 722 -66 l 694 -66 q 601 -66 533 -51 q 465 -37 417 -6 q 392 -9 369 -11 q 347 -13 329 -13 q 193 -13 114 63 q 34 139 34 269 q 34 341 59 415 q 84 488 131 554 q 190 638 276 683 q 363 728 466 728 q 609 728 689 653 q 770 578 770 444 q 770 331 713 225 q 657 120 561 53 z m 612 484 q 612 583 578 631 q 544 679 475 679 q 432 679 392 656 q 352 633 315 587 q 267 526 237 435 q 208 344 208 252 q 208 160 248 108 q 287 55 356 55 q 400 55 441 81 q 482 107 517 157 q 563 224 587 308 q 612 392 612 484 z"},"w":{"x_min":0,"x_max":725,"ha":725,"o":"m 159 480 q 178 437 187 385 q 197 333 197 276 q 197 219 191 166 q 186 114 175 70 q 221 103 260 164 q 300 225 331 309 q 324 370 317 387 q 310 404 296 404 q 292 404 288 403 q 284 402 279 400 l 270 426 q 311 438 350 451 q 390 465 427 480 q 445 437 454 383 q 463 330 463 269 q 463 214 457 163 q 452 111 440 63 q 522 120 573 202 q 624 283 624 350 q 624 361 618 368 q 612 375 596 380 q 576 386 567 396 q 559 406 559 425 q 559 451 576 466 q 594 480 626 480 q 662 480 681 465 q 700 449 700 420 q 700 406 696 388 q 692 370 682 343 q 662 288 634 237 q 606 186 574 144 q 513 66 446 28 q 378 -10 296 -13 q 312 17 322 76 q 331 136 334 233 q 282 114 206 52 q 130 -9 31 -13 q 49 27 59 91 q 68 155 68 237 q 68 317 59 359 q 50 402 33 402 q 28 402 12 399 q 5 398 2 398 l -5 423 q 38 436 78 450 q 119 464 159 480 z"},"-":{"x_min":0,"x_max":395,"ha":395,"o":"m 53 301 l 322 301 l 295 179 l 26 179 z"},"E":{"x_min":0,"x_max":649,"ha":649,"o":"m 117 717 q 142 716 175 715 q 208 715 285 715 l 629 717 q 618 656 611 613 q 604 570 600 536 l 569 536 q 569 607 544 636 q 519 665 455 665 l 387 665 q 370 665 364 660 q 358 656 353 635 l 300 398 l 363 398 q 419 398 443 416 q 468 433 480 479 l 512 479 q 494 413 481 356 q 468 299 460 248 l 429 248 q 432 270 433 280 q 434 291 434 298 q 434 327 419 337 q 404 348 361 348 l 289 348 l 231 82 q 230 80 229 74 q 228 69 228 66 q 228 57 234 53 q 241 50 257 50 l 291 50 q 389 50 451 85 q 513 120 540 189 l 572 189 q 554 117 530 10 l 528 0 l 237 0 q 92 0 42 -1 q -9 -1 -37 -3 l -37 29 q 16 29 37 44 q 58 60 71 118 l 178 603 l 178 604 q 185 636 185 648 q 185 668 172 676 q 159 684 117 686 z"},"s":{"x_min":0,"x_max":419,"ha":419,"o":"m 358 464 q 354 430 350 396 q 346 361 342 324 l 316 324 q 313 378 285 411 q 257 445 216 445 q 193 445 178 432 q 164 418 164 397 q 164 384 173 369 q 183 355 218 321 q 226 313 242 298 q 335 208 335 146 q 335 74 292 30 q 248 -13 174 -13 q 151 -13 105 -2 q 60 9 37 9 q 23 9 11 8 q -1 7 -12 5 q -4 47 1 93 q 7 138 12 188 l 38 188 q 53 116 89 75 q 125 33 171 33 q 198 33 215 48 q 232 63 232 87 q 232 114 155 191 l 145 201 q 139 208 126 220 q 47 299 47 353 q 47 409 89 444 q 130 480 198 480 q 227 480 273 470 q 319 461 336 461 q 341 461 346 462 q 352 462 358 464 z"},">":{"x_min":0,"x_max":833,"ha":833,"o":"m 129 583 l 704 347 l 704 250 l 129 13 l 129 120 l 566 298 l 129 476 z"},"l":{"x_min":0,"x_max":324,"ha":324,"o":"m 293 754 l 159 151 q 158 148 157 144 q 153 128 153 122 q 153 113 158 107 q 163 101 171 101 q 185 101 201 119 q 217 137 234 171 l 259 159 q 224 76 178 31 q 132 -13 83 -13 q 50 -13 30 5 q 10 23 10 51 q 10 79 21 121 q 23 131 24 136 l 128 608 l 128 610 q 138 651 138 660 q 138 671 131 676 q 124 681 106 681 q 99 681 82 680 q 77 679 74 679 l 74 705 z"},"8":{"x_min":0,"x_max":580,"ha":580,"o":"m 246 334 q 208 299 188 253 q 167 207 167 161 q 167 107 197 74 q 226 42 275 42 q 321 42 349 71 q 378 99 378 144 q 378 178 350 219 q 322 261 246 334 z m 391 391 q 452 334 479 290 q 505 246 505 203 q 505 105 437 46 q 370 -13 256 -13 q 145 -13 82 30 q 20 73 20 150 q 20 221 73 276 q 125 330 223 359 q 176 403 156 439 q 136 476 136 516 q 136 601 198 650 q 259 699 367 699 q 458 699 509 664 q 560 628 560 564 q 560 509 517 466 q 475 422 391 391 z m 363 419 q 395 445 413 485 q 432 525 432 566 q 432 605 412 629 q 391 653 357 653 q 323 653 299 625 q 276 597 276 554 q 276 523 296 492 q 316 461 363 419 z"},"\\":{"x_min":0,"x_max":443,"ha":443,"o":"m 132 728 l 193 728 l 309 -106 l 249 -106 z"},"e":{"x_min":0,"x_max":496,"ha":496,"o":"m 138 199 q 137 194 136 189 q 136 184 136 174 q 136 128 163 102 q 189 75 235 75 q 277 75 313 97 q 350 118 387 164 l 410 147 q 355 65 295 26 q 234 -13 161 -13 q 85 -13 41 28 q -4 69 -4 140 q -4 214 25 274 q 54 335 119 395 q 162 436 216 458 q 271 480 325 480 q 391 480 428 453 q 466 426 466 380 q 466 295 379 247 q 293 199 138 199 z m 146 228 q 182 229 212 240 q 243 251 267 273 q 297 301 316 339 q 335 377 335 408 q 335 427 328 436 q 321 445 306 445 q 271 445 223 383 q 176 321 146 228 z"},"b":{"x_min":0,"x_max":533,"ha":533,"o":"m 156 152 q 153 139 151 125 q 150 112 150 100 q 150 67 164 49 q 177 31 202 31 q 230 31 257 56 q 285 82 310 132 q 331 172 342 217 q 354 263 354 299 q 354 339 335 364 q 316 388 287 388 q 267 388 245 375 q 223 362 197 333 z m 288 754 l 207 387 q 250 433 292 456 q 334 480 372 480 q 428 480 461 440 q 493 399 493 329 q 493 265 470 206 q 447 147 403 99 q 350 41 292 13 q 233 -14 162 -14 q 88 -14 53 11 q 17 36 17 87 q 17 102 19 122 q 21 141 26 161 l 125 608 q 126 615 129 626 q 135 651 135 659 q 135 671 128 676 q 121 681 103 681 q 97 681 78 680 q 73 679 71 679 l 71 705 z"},"%":{"x_min":0,"x_max":925,"ha":925,"o":"m 801 254 q 801 297 782 321 q 763 345 729 345 q 708 345 688 334 q 667 324 651 304 q 623 270 607 222 q 591 175 591 129 q 591 87 611 62 q 631 38 665 38 q 719 38 760 102 q 801 165 801 254 z m 723 386 q 792 386 832 346 q 872 307 872 237 q 872 197 859 158 q 846 119 822 86 q 784 35 740 11 q 695 -13 639 -13 q 573 -13 533 28 q 492 69 492 136 q 492 187 516 238 q 539 288 581 327 q 612 356 648 371 q 685 386 723 386 z m 361 568 q 361 611 342 635 q 323 659 288 659 q 268 659 248 648 q 227 637 211 617 q 183 583 167 537 q 151 490 151 443 q 151 401 170 377 q 190 352 223 352 q 278 352 320 416 q 361 479 361 568 z m 666 699 l 707 676 l 262 -13 l 220 9 z m 283 699 q 353 699 392 659 q 432 620 432 550 q 432 510 419 471 q 406 432 382 400 q 345 350 300 325 q 255 300 202 300 q 134 300 93 341 q 52 382 52 450 q 52 501 75 551 q 99 601 141 640 q 171 668 207 684 q 243 699 280 699 z"},"m":{"x_min":0,"x_max":859,"ha":859,"o":"m 233 480 l 189 282 q 276 388 331 434 q 387 480 425 480 q 451 480 466 460 q 482 441 482 408 q 482 389 475 355 l 474 353 l 458 282 q 559 399 609 439 q 659 480 696 480 q 726 480 745 460 q 764 440 764 408 q 764 397 762 384 q 759 371 754 353 l 698 151 q 695 143 694 135 q 693 128 693 122 q 693 112 698 107 q 703 102 711 102 q 725 102 741 120 q 757 137 774 171 l 799 159 q 763 76 717 31 q 671 -13 622 -13 q 590 -13 571 7 q 551 27 551 59 q 551 87 562 125 q 564 132 565 136 l 607 288 q 613 308 616 323 q 619 337 619 345 q 619 356 614 363 q 608 369 599 369 q 583 369 541 326 q 499 283 441 206 l 396 0 l 269 0 l 333 288 q 337 308 340 322 q 342 336 342 345 q 342 357 338 363 q 333 369 325 369 q 308 369 267 325 q 226 281 172 206 l 128 0 l 1 0 l 75 334 l 77 342 q 85 379 85 386 q 85 397 78 402 q 70 407 53 407 q 45 407 29 406 q 24 405 21 405 l 21 431 z"},"#":{"x_min":0,"x_max":769,"ha":769,"o":"m 344 416 l 300 293 l 429 293 l 472 416 z m 347 715 l 452 715 l 380 512 l 504 512 l 577 715 l 681 715 l 609 512 l 747 512 l 711 415 l 575 415 l 532 294 l 675 294 l 640 198 l 498 198 l 426 -5 l 321 -5 l 393 198 l 269 198 l 196 -5 l 91 -5 l 163 198 l 22 198 l 58 294 l 198 294 l 241 415 l 93 415 l 129 512 l 275 512 z"},",":{"x_min":0,"x_max":290,"ha":290,"o":"m -47 -150 l -52 -121 q 6 -108 43 -80 q 81 -51 95 -7 q 84 -11 76 -13 q 68 -15 62 -15 q 38 -15 23 2 q 9 20 9 48 q 9 88 35 115 q 61 142 100 142 q 134 142 155 117 q 177 92 177 53 q 177 -23 115 -79 q 54 -136 -47 -150 z"},"n":{"x_min":0,"x_max":604,"ha":604,"o":"m 237 480 l 193 282 q 285 394 340 437 q 395 480 440 480 q 471 480 489 460 q 508 440 508 408 q 508 397 506 384 q 503 371 498 353 l 442 151 q 439 143 438 135 q 437 128 437 122 q 437 112 442 107 q 446 102 455 102 q 469 102 485 120 q 501 137 518 171 l 543 159 q 507 76 461 31 q 415 -13 366 -13 q 329 -13 309 6 q 290 26 290 63 q 290 85 301 124 q 303 132 304 136 l 347 288 q 352 306 355 321 q 358 336 358 345 q 358 357 353 363 q 348 369 338 369 q 316 369 273 326 q 231 283 177 206 l 133 0 l 1 0 l 75 334 l 77 342 q 85 379 85 386 q 85 397 78 402 q 70 407 53 407 q 45 407 29 406 q 24 405 21 405 l 21 431 z"},"h":{"x_min":0,"x_max":596,"ha":596,"o":"m 291 754 l 184 282 q 276 394 331 437 q 386 480 432 480 q 462 480 481 460 q 499 441 499 408 q 499 397 497 385 q 495 373 490 353 l 434 151 q 434 149 432 144 q 428 127 428 122 q 428 113 433 107 q 438 101 446 101 q 460 101 476 119 q 492 137 509 171 l 534 159 q 499 76 453 31 q 407 -13 358 -13 q 322 -13 301 6 q 281 25 281 59 q 281 87 292 125 q 294 132 295 136 l 338 288 l 339 292 q 350 333 350 344 q 350 356 344 363 q 339 369 329 369 q 307 369 265 326 q 223 284 169 206 l 124 0 l -8 0 l 127 608 q 129 616 132 629 q 137 652 137 659 q 137 671 130 676 q 123 681 105 681 q 99 681 80 680 q 75 679 73 679 l 73 705 z"},"z":{"x_min":0,"x_max":443,"ha":443,"o":"m 423 480 q 418 453 392 419 q 366 386 278 302 q 187 215 145 171 q 103 127 89 105 q 120 112 154 115 q 188 119 223 119 l 250 119 q 291 119 310 131 q 330 143 343 173 l 370 173 q 359 139 347 96 q 335 52 322 0 q 284 1 245 2 q 207 3 167 3 q 100 3 51 -1 q 1 -5 -31 -13 q -16 44 52 124 q 119 204 290 362 q 264 356 239 353 q 214 350 191 350 q 174 350 156 352 q 138 353 136 353 q 90 343 76 332 q 62 322 53 298 l 26 298 q 50 370 62 411 q 73 452 78 480 q 90 474 104 472 q 118 469 137 469 q 144 469 157 470 q 171 470 178 470 l 235 470 q 298 470 341 472 q 384 475 423 480 z"},"B":{"x_min":0,"x_max":691,"ha":691,"o":"m 222 66 q 221 62 221 59 q 220 55 220 51 q 220 43 229 40 q 237 37 259 37 q 349 37 399 90 q 449 143 449 237 q 449 298 416 332 q 383 365 322 365 q 302 365 295 360 q 287 355 283 337 z m 297 402 q 302 401 307 401 q 312 401 322 401 q 396 401 441 449 q 486 497 486 574 q 486 627 463 651 q 440 676 391 676 q 372 676 364 671 q 355 666 351 647 z m 117 717 q 167 714 208 713 q 250 712 287 712 q 322 712 377 714 q 433 717 454 717 q 558 717 606 683 q 655 649 655 578 q 655 506 605 456 q 556 406 467 391 q 546 374 584 335 q 622 296 622 233 q 622 184 600 137 q 578 90 540 59 q 502 28 448 14 q 394 0 304 0 q 283 0 219 1 q 156 3 114 3 q 89 3 52 1 q 14 0 -37 -3 l -37 29 q 16 29 37 44 q 58 60 71 118 l 178 603 l 178 604 q 185 636 185 648 q 185 668 172 676 q 159 684 117 686 z"},"K":{"x_min":0,"x_max":744,"ha":744,"o":"m 117 717 q 174 714 214 713 q 254 712 285 712 q 324 712 360 713 q 396 714 432 717 l 432 686 q 389 683 371 667 q 353 652 340 597 l 293 384 l 510 572 q 560 615 573 631 q 586 647 586 658 q 586 670 572 677 q 558 683 516 686 l 516 717 q 572 714 605 713 q 639 712 662 712 q 694 712 726 713 q 759 714 792 717 l 792 686 q 750 682 715 665 q 679 649 630 608 l 429 438 l 591 125 q 622 64 644 46 q 665 29 698 29 l 703 29 l 703 -3 q 644 0 604 1 q 563 3 540 3 q 491 3 384 -2 l 375 -3 l 375 29 q 415 29 426 34 q 437 39 437 52 q 437 60 433 72 q 429 84 422 99 l 290 372 l 233 112 q 229 98 228 86 q 226 74 226 66 q 226 46 240 38 q 254 30 294 29 l 294 -3 q 234 0 193 1 q 152 3 130 3 q 81 3 -26 -2 l -37 -3 l -37 29 q 16 29 37 44 q 58 60 71 118 l 178 603 l 178 604 q 185 636 185 648 q 185 668 172 676 q 159 684 117 686 z"},"R":{"x_min":0,"x_max":712,"ha":712,"o":"m 293 384 q 297 383 302 383 q 308 383 318 383 q 399 383 447 435 q 494 487 494 576 q 494 622 467 648 q 439 675 391 675 q 370 675 362 670 q 355 665 351 647 z m 117 717 q 166 714 207 713 q 248 712 285 712 q 324 712 379 714 q 433 717 448 717 q 564 717 615 681 q 666 646 666 566 q 666 487 619 434 q 572 380 484 359 q 492 348 499 336 q 505 323 511 309 l 586 100 q 601 59 618 44 q 636 29 667 29 l 667 -3 q 628 -1 573 -1 q 518 0 445 0 l 353 299 q 344 328 334 337 q 324 345 303 345 q 296 345 292 345 q 288 345 284 344 l 232 112 q 229 97 227 85 q 225 73 225 62 q 225 45 241 38 q 258 30 294 29 l 294 -3 q 235 0 193 1 q 151 3 130 3 q 81 3 -26 -2 l -37 -3 l -37 29 q 16 29 37 44 q 58 60 71 118 l 178 603 l 178 604 q 185 636 185 648 q 185 668 172 676 q 159 684 117 686 z"},"T":{"x_min":0,"x_max":672,"ha":672,"o":"m 123 717 q 142 714 164 713 q 186 712 214 712 l 269 712 l 553 712 q 601 712 635 713 q 668 714 695 717 q 684 673 672 623 q 661 572 650 516 l 619 516 q 622 531 623 544 q 624 558 624 570 q 624 619 595 642 q 566 665 503 665 l 480 665 l 358 112 q 354 97 353 85 q 351 74 351 66 q 351 45 366 38 q 380 30 427 29 l 427 -3 q 371 0 326 1 q 282 3 249 3 q 196 3 81 -3 l 78 -3 l 78 29 q 131 29 153 45 q 174 61 187 118 l 308 665 l 298 665 q 220 665 173 630 q 125 595 97 516 l 65 516 q 82 568 96 618 q 111 669 123 717 z"},"P":{"x_min":0,"x_max":654,"ha":654,"o":"m 289 348 q 299 347 304 346 q 309 346 313 346 q 390 346 438 407 q 486 469 486 567 q 486 621 462 648 q 438 675 391 675 q 374 675 366 670 q 359 665 355 647 z m 117 717 q 158 714 197 713 q 236 712 274 712 q 318 712 378 714 q 438 717 455 717 q 559 717 609 677 q 658 637 658 553 q 658 495 633 444 q 608 394 562 359 q 526 333 470 321 q 413 308 327 308 l 280 308 l 236 112 q 232 98 231 86 q 229 74 229 66 q 229 45 244 38 q 258 30 305 29 l 305 -3 q 247 0 203 1 q 160 3 130 3 q 79 3 -28 -2 l -37 -3 l -37 29 q 16 29 37 44 q 58 60 71 118 l 178 603 l 178 604 q 185 636 185 648 q 185 668 172 676 q 159 684 117 686 z"},"|":{"x_min":0,"x_max":500,"ha":500,"o":"m 200 764 l 301 764 l 301 -236 l 200 -236 z"},"t":{"x_min":0,"x_max":359,"ha":359,"o":"m 243 646 l 284 646 l 241 453 l 334 453 l 334 411 l 232 411 l 174 151 q 173 147 172 141 q 169 128 169 123 q 169 112 174 106 q 178 100 187 100 q 200 100 216 118 q 232 136 250 171 l 275 159 q 240 77 193 32 q 147 -13 98 -13 q 62 -13 41 7 q 20 28 20 63 q 20 70 21 79 q 23 89 27 107 l 94 411 l 37 411 l 37 444 q 109 459 161 510 q 212 560 243 646 z"},"M":{"x_min":0,"x_max":897,"ha":897,"o":"m 117 717 q 145 716 185 715 q 226 715 330 715 l 421 237 l 717 715 q 733 715 761 714 q 790 714 802 714 q 836 714 865 715 q 894 715 918 717 l 918 686 q 875 684 857 668 q 838 653 826 597 l 719 112 q 719 110 718 106 q 711 76 711 62 q 711 45 727 37 q 743 30 780 29 l 780 -3 q 761 -2 727 -1 q 640 3 612 3 q 571 3 474 -2 q 460 -2 453 -3 l 453 29 q 505 29 527 44 q 549 60 562 118 l 657 527 l 329 0 l 313 0 l 212 527 l 126 138 q 121 115 119 98 q 116 81 116 70 q 116 48 131 39 q 145 30 181 29 l 181 -3 l 178 -3 q 107 3 73 3 q 42 3 -19 -3 l -22 -3 l -22 29 q 21 33 41 52 q 60 71 75 140 l 178 603 q 183 626 184 634 q 185 643 185 648 q 185 668 172 676 q 159 684 117 686 z"},"g":{"x_min":0,"x_max":501,"ha":501,"o":"m 84 -6 q 61 -21 49 -43 q 36 -65 36 -92 q 36 -137 73 -164 q 109 -191 171 -191 q 219 -191 252 -170 q 285 -148 285 -119 q 285 -91 243 -67 q 201 -42 84 -6 z m 394 414 q 409 396 416 376 q 423 355 423 332 q 423 252 358 197 q 294 142 197 142 q 178 142 165 143 q 152 145 142 147 q 132 138 127 132 q 123 126 123 122 q 123 106 194 83 q 239 68 267 57 q 328 34 355 6 q 383 -21 383 -58 q 383 -136 314 -182 q 245 -227 124 -227 q 21 -227 -39 -195 q -98 -163 -98 -108 q -98 -69 -65 -41 q -32 -13 43 12 q 7 34 -5 48 q -17 61 -17 76 q -17 102 14 123 q 44 145 106 164 q 69 187 52 216 q 34 245 34 284 q 34 364 99 422 q 163 480 253 480 q 291 480 321 469 q 351 459 371 439 q 405 464 423 473 q 442 482 458 482 q 476 482 486 471 q 497 459 497 441 q 497 423 487 412 q 477 400 462 400 q 451 400 436 410 q 422 420 415 420 q 412 420 407 418 q 401 417 394 414 z m 266 445 q 254 445 243 439 q 231 434 223 424 q 196 393 177 339 q 159 286 159 239 q 159 215 168 202 q 177 189 195 189 q 210 189 224 199 q 239 209 252 229 q 275 264 290 312 q 304 359 304 398 q 304 419 294 432 q 283 445 266 445 z"},"j":{"x_min":0,"x_max":285,"ha":285,"o":"m 250 480 l 149 24 q 124 -92 68 -160 q 13 -227 -56 -227 q -95 -227 -119 -206 q -143 -184 -143 -149 q -143 -123 -127 -106 q -111 -89 -87 -89 q -72 -89 -58 -98 q -45 -106 -35 -122 q -32 -127 -27 -137 q -16 -158 -6 -158 q 6 -158 13 -146 q 21 -135 21 -116 q 21 -100 17 -62 q 12 -23 12 0 q 12 26 22 75 q 24 83 25 87 l 80 334 q 82 342 84 355 q 90 378 90 385 q 90 397 83 402 q 75 407 57 407 q 51 407 31 405 q 27 405 25 405 l 25 431 z m 206 727 q 238 727 260 705 q 283 682 283 651 q 283 619 261 597 q 238 575 206 575 q 175 575 152 597 q 130 619 130 651 q 130 683 152 705 q 174 727 206 727 z"},"i":{"x_min":0,"x_max":337,"ha":337,"o":"m 253 480 l 167 151 q 164 138 163 132 q 162 126 162 122 q 162 113 167 107 q 172 101 180 101 q 194 101 210 119 q 226 137 243 171 l 268 159 q 232 74 185 31 q 139 -13 84 -13 q 50 -13 30 5 q 9 23 9 52 q 9 77 21 125 q 23 132 24 136 l 75 334 q 80 353 82 367 q 85 381 85 386 q 85 397 78 402 q 70 407 53 407 q 45 407 29 406 q 24 405 21 405 l 21 431 z m 202 727 q 234 727 256 705 q 278 683 278 651 q 278 619 256 597 q 234 575 202 575 q 171 575 148 597 q 126 620 126 651 q 126 682 148 705 q 171 727 202 727 z"},"y":{"x_min":0,"x_max":459,"ha":459,"o":"m 130 480 q 180 429 215 326 q 250 223 260 90 q 306 168 332 235 q 358 301 358 338 q 358 364 327 373 q 325 374 324 374 q 304 380 294 393 q 285 405 285 425 q 285 451 302 465 q 320 480 351 480 q 392 480 413 464 q 433 447 433 414 q 433 399 428 378 q 423 357 412 328 q 381 243 338 159 q 295 76 245 1 q 168 -112 103 -170 q 38 -227 -14 -227 q -47 -227 -63 -209 q -78 -190 -78 -150 q -78 -112 -64 -97 q -49 -82 -15 -82 q 3 -82 15 -89 q 26 -95 30 -108 q 32 -114 34 -123 q 41 -149 53 -149 q 70 -149 104 -119 q 137 -89 167 -44 q 158 66 132 165 q 106 264 64 346 l 61 352 q 37 399 17 399 q 13 399 8 398 q 2 397 -3 395 l -12 419 z"},"@":{"x_min":0,"x_max":986,"ha":986,"o":"m 574 156 q 544 107 509 83 q 473 60 430 60 q 361 60 322 104 q 282 149 282 227 q 282 283 307 335 q 331 388 377 431 q 411 462 449 479 q 488 495 528 495 q 575 495 601 473 q 628 451 636 406 l 660 486 l 753 486 l 668 184 l 667 181 q 660 152 660 138 q 660 115 670 102 q 680 89 697 89 q 713 89 738 101 q 764 113 786 132 q 836 175 863 238 q 890 301 890 377 q 890 511 798 595 q 706 678 559 678 q 492 678 431 660 q 371 641 320 605 q 235 546 190 454 q 144 363 144 251 q 144 87 247 -9 q 350 -105 523 -105 q 604 -105 679 -80 q 754 -56 829 -4 l 848 -29 q 774 -84 693 -112 q 611 -139 523 -139 q 432 -139 353 -117 q 275 -94 218 -52 q 144 3 104 84 q 65 165 65 261 q 65 337 90 407 q 116 477 165 536 q 236 621 334 667 q 433 712 547 712 q 717 712 820 620 q 922 527 922 374 q 922 295 893 228 q 864 160 810 111 q 781 85 748 72 q 715 58 681 58 q 633 58 605 83 q 578 109 574 156 z m 546 463 q 516 463 491 441 q 466 419 442 371 q 414 315 399 266 q 385 217 385 177 q 385 138 402 115 q 418 93 447 93 q 478 93 508 123 q 537 153 564 212 q 583 257 595 302 q 606 348 606 382 q 606 421 590 442 q 575 463 546 463 z"},".":{"x_min":0,"x_max":290,"ha":290,"o":"m 102 150 q 135 150 155 130 q 176 110 176 78 q 176 37 151 12 q 127 -13 87 -13 q 56 -13 36 9 q 15 31 15 64 q 15 100 41 125 q 66 150 102 150 z"},"p":{"x_min":0,"x_max":543,"ha":543,"o":"m 166 152 q 164 145 163 135 q 162 126 162 115 q 162 82 177 63 q 191 45 217 45 q 247 45 273 69 q 300 93 323 141 q 343 182 353 223 q 364 264 364 299 q 364 340 346 364 q 328 388 298 388 q 277 388 255 375 q 233 361 207 333 z m 239 480 l 217 387 q 261 433 302 457 q 344 480 382 480 q 438 480 471 439 q 504 399 504 329 q 504 267 482 209 q 459 151 416 101 q 374 52 327 26 q 281 0 237 0 q 207 0 182 12 q 157 24 142 46 l 100 -144 q 100 -146 99 -150 q 95 -169 95 -173 q 95 -184 104 -189 q 113 -193 143 -195 l 143 -222 q 116 -220 87 -219 q 57 -218 23 -218 q -11 -218 -40 -219 q -70 -220 -97 -222 l -97 -195 q -64 -194 -52 -186 q -39 -178 -31 -140 l 76 334 q 78 342 81 355 q 86 378 86 385 q 86 397 79 402 q 71 407 53 407 q 46 407 27 405 q 23 405 21 405 l 21 431 z"},"X":{"x_min":0,"x_max":709,"ha":709,"o":"m 81 717 q 139 714 177 713 q 214 712 241 712 q 291 712 330 713 q 369 714 404 717 l 404 686 q 368 684 353 676 q 338 668 338 652 q 338 648 339 643 q 341 637 345 626 l 409 458 l 554 619 q 567 633 573 644 q 579 654 579 661 q 579 671 568 677 q 557 683 526 686 l 526 717 q 554 714 582 713 q 609 712 637 712 q 662 712 689 713 q 717 714 752 717 l 752 686 q 713 684 684 669 q 656 655 614 609 l 430 406 l 559 99 l 560 96 q 579 51 597 40 q 605 36 619 33 q 633 31 657 29 l 657 -3 q 599 0 559 1 q 518 3 497 3 q 450 3 346 -2 l 334 -3 l 334 29 q 370 31 385 38 q 400 46 400 62 q 400 65 398 71 q 397 77 393 88 l 312 289 l 131 87 q 122 77 117 69 q 113 61 113 54 q 113 43 126 37 q 139 31 168 29 l 168 -3 q 127 0 99 1 q 72 3 56 3 q 29 3 -36 -1 q -50 -2 -58 -3 l -58 29 q -19 31 10 45 q 39 60 80 105 l 292 340 l 179 616 q 160 663 141 674 q 122 685 81 686 z"},"*":{"x_min":0,"x_max":564,"ha":564,"o":"m 304 514 l 312 514 q 316 503 324 482 q 351 415 351 396 q 351 377 340 366 q 328 355 308 355 q 288 355 276 366 q 265 378 265 399 q 265 410 274 437 q 283 463 304 514 z m 333 530 q 428 515 451 503 q 474 490 474 467 q 474 450 461 436 q 448 422 432 422 q 402 422 342 506 q 333 518 329 524 z m 283 530 l 287 524 q 283 518 274 506 q 214 422 184 422 q 167 422 155 436 q 142 450 142 467 q 142 490 165 503 q 188 515 283 530 z m 334 553 l 330 559 q 334 565 343 577 q 403 661 433 661 q 449 661 461 647 q 474 633 474 616 q 474 593 450 580 q 426 567 334 553 z m 286 559 l 283 553 q 194 566 168 579 q 142 592 142 616 q 142 633 155 647 q 167 661 183 661 q 212 661 270 581 q 280 567 286 559 z m 312 569 l 304 569 q 282 621 274 646 q 265 671 265 683 q 265 704 276 716 q 288 728 308 728 q 327 728 339 717 q 351 705 351 686 q 351 665 318 585 z"},"Y":{"x_min":0,"x_max":633,"ha":633,"o":"m 22 717 q 78 714 117 713 q 157 712 186 712 q 227 712 264 713 q 301 714 337 717 l 337 686 q 291 683 278 676 q 265 668 265 649 q 265 644 266 639 q 268 634 271 624 l 366 369 l 567 629 q 575 639 579 648 q 583 657 583 663 q 583 674 572 680 q 560 685 535 686 l 535 717 q 569 714 593 713 q 616 712 635 712 q 660 712 682 713 q 704 714 726 717 l 726 686 q 698 684 676 671 q 654 658 629 626 l 391 322 l 344 112 q 341 98 339 86 q 337 74 337 66 q 337 45 352 38 q 366 30 413 29 l 413 -3 q 356 0 312 1 q 268 3 238 3 q 194 3 91 -2 q 79 -3 73 -3 l 73 29 q 126 29 147 45 q 169 61 182 118 l 225 312 l 103 618 q 95 638 86 652 q 77 667 70 672 q 62 678 50 682 q 38 685 22 686 z"},"c":{"x_min":0,"x_max":475,"ha":475,"o":"m 379 164 l 402 147 q 349 67 289 27 q 230 -13 164 -13 q 84 -13 40 32 q -5 78 -5 159 q -5 217 24 276 q 52 336 104 385 q 154 433 210 456 q 267 480 331 480 q 393 480 427 455 q 460 430 460 384 q 460 345 441 326 q 422 306 385 306 q 353 306 336 318 q 319 330 319 353 q 319 369 329 391 q 339 414 339 422 q 339 432 332 438 q 325 444 314 444 q 295 444 276 434 q 256 423 237 404 q 191 356 164 293 q 136 231 136 176 q 136 129 162 102 q 188 75 232 75 q 269 75 304 96 q 339 118 379 164 z"},"!":{"x_min":0,"x_max":422,"ha":422,"o":"m 157 150 q 190 150 211 130 q 232 109 232 78 q 232 38 208 12 q 184 -13 147 -13 q 113 -13 92 8 q 71 30 71 64 q 71 100 96 125 q 121 150 157 150 z m 194 227 l 161 231 q 181 349 189 519 q 191 566 193 586 q 198 657 220 693 q 242 728 281 728 q 315 728 333 710 q 351 692 351 659 q 351 618 289 476 q 227 333 194 227 z"},"/":{"x_min":0,"x_max":443,"ha":443,"o":"m 412 728 l 481 728 l 0 -106 l -69 -106 z"},"[":{"x_min":0,"x_max":435,"ha":435,"o":"m 226 714 l 481 714 l 481 680 l 351 680 l 175 -115 l 301 -115 l 301 -149 l 34 -149 z"},"6":{"x_min":0,"x_max":580,"ha":580,"o":"m 201 340 q 195 312 192 283 q 189 255 189 227 q 189 149 217 105 q 245 61 293 61 q 337 61 365 105 q 394 150 394 220 q 394 287 365 328 q 336 370 290 370 q 266 370 242 362 q 219 354 201 340 z m 545 680 l 534 651 q 510 655 496 657 q 483 658 472 658 q 378 658 309 586 q 241 514 212 385 q 256 435 295 456 q 333 478 377 478 q 445 478 484 429 q 523 379 523 292 q 523 226 500 168 q 477 110 432 64 q 394 25 349 6 q 304 -13 250 -13 q 150 -13 95 50 q 40 112 40 226 q 40 341 86 448 q 132 555 212 624 q 254 661 306 680 q 359 699 418 699 q 447 699 478 694 q 510 689 545 680 z"},"r":{"x_min":0,"x_max":432,"ha":432,"o":"m 232 480 l 190 282 q 246 389 288 434 q 329 480 369 480 q 395 480 410 462 q 426 445 426 416 q 426 374 402 343 q 377 312 344 312 q 319 312 305 333 q 291 353 287 353 q 271 353 242 314 q 212 274 178 206 l 133 0 l 1 0 l 75 334 l 77 342 q 85 379 85 386 q 85 397 78 402 q 70 407 53 407 q 45 407 29 406 q 24 405 21 405 l 21 431 z"},"2":{"x_min":0,"x_max":580,"ha":580,"o":"m 356 269 l 170 134 l 407 134 q 433 134 441 141 q 450 148 459 168 l 498 168 q 485 131 469 89 q 453 48 433 0 l 145 0 q 119 0 81 -1 q 44 -1 -4 -3 l -4 41 l 206 230 q 297 312 334 369 q 372 427 372 482 q 372 534 343 564 q 314 594 264 594 q 220 594 187 563 q 154 533 137 476 l 103 476 q 117 585 178 642 q 239 699 344 699 q 433 699 484 651 q 534 602 534 517 q 534 453 496 398 q 458 343 356 269 z"},"{":{"x_min":0,"x_max":500,"ha":500,"o":"m 416 740 l 416 710 q 357 709 335 684 q 314 658 314 581 l 314 516 q 314 406 288 366 q 262 326 192 310 q 262 294 288 255 q 314 215 314 105 l 314 39 q 314 -38 335 -63 q 357 -89 416 -90 l 416 -119 q 301 -119 260 -84 q 218 -48 218 50 l 218 144 q 218 225 190 255 q 163 285 87 292 l 87 329 q 163 336 190 366 q 218 396 218 477 l 218 571 q 218 669 260 705 q 301 740 416 740 z"},"9":{"x_min":0,"x_max":580,"ha":580,"o":"m 11 35 l 27 66 q 62 51 91 44 q 121 36 143 36 q 223 36 286 110 q 349 183 378 311 q 341 272 304 254 q 268 235 230 235 q 160 235 116 289 q 72 342 72 429 q 72 548 146 624 q 221 699 339 699 q 439 699 495 637 q 551 574 551 463 q 551 429 546 394 q 541 359 532 327 q 507 241 473 177 q 438 113 391 66 q 352 27 302 7 q 253 -13 196 -13 q 143 -13 97 -1 q 51 11 11 35 z m 384 362 q 391 384 394 414 q 397 444 397 482 q 397 562 376 605 q 354 648 316 648 q 274 648 244 600 q 213 552 213 481 q 213 413 240 373 q 267 333 313 333 q 331 333 348 340 q 365 347 384 362 z"}," ":{"x_min":0,"x_max":290,"ha":290,"o":""},"I":{"x_min":0,"x_max":432,"ha":432,"o":"m 123 717 q 178 714 219 713 q 260 712 294 712 q 325 712 362 713 q 399 714 448 717 l 448 686 q 404 683 386 667 q 367 651 355 597 l 248 112 q 245 98 243 86 q 241 74 241 66 q 241 46 256 38 q 271 30 315 29 l 315 -3 q 257 0 213 1 q 169 3 139 3 q 84 3 -29 -3 l -32 -3 l -32 29 q 21 29 43 45 q 64 61 77 118 l 184 603 l 184 604 q 191 636 191 648 q 191 668 178 676 q 165 684 123 686 z"},"H":{"x_min":0,"x_max":823,"ha":823,"o":"m 117 717 q 173 714 213 713 q 253 712 285 712 q 326 712 363 713 q 400 714 436 717 l 436 686 q 393 684 374 667 q 355 651 343 597 l 299 396 l 540 396 l 586 603 q 589 618 591 630 q 593 641 593 649 q 593 669 578 677 q 564 685 525 686 l 525 717 q 581 714 621 713 q 662 712 693 712 q 734 712 771 713 q 808 714 844 717 l 844 686 q 801 684 783 668 q 765 653 752 597 l 644 112 q 640 94 639 83 q 637 72 637 62 q 637 45 653 38 q 669 30 706 29 l 706 -3 q 647 0 605 1 q 562 3 538 3 q 487 3 377 -3 l 371 -3 l 371 29 q 423 29 445 44 q 466 60 479 118 l 530 345 l 288 345 l 236 112 q 232 98 231 86 q 229 74 229 66 q 229 46 243 38 q 257 30 297 29 l 297 -3 q 236 0 195 1 q 154 3 130 3 q 81 3 -26 -2 l -37 -3 l -37 29 q 16 29 37 44 q 58 60 71 118 l 178 603 l 178 604 q 185 636 185 648 q 185 668 172 676 q 159 684 117 686 z"},"4":{"x_min":0,"x_max":580,"ha":580,"o":"m 356 529 l 106 284 l 294 284 z m 454 699 l 528 699 l 429 284 l 521 284 l 503 181 q 495 182 486 183 q 477 183 456 183 l 405 183 l 360 0 l 222 0 l 268 183 l 26 183 l 26 282 z"},"~":{"x_min":0,"x_max":833,"ha":833,"o":"m 747 392 l 747 284 q 696 250 651 233 q 606 217 562 217 q 540 217 517 221 q 495 225 472 232 q 460 236 438 244 q 331 281 275 281 q 233 281 188 262 q 143 244 87 204 l 87 312 q 139 347 187 365 q 234 382 276 382 q 333 382 418 354 l 420 353 q 429 350 447 344 q 522 317 564 317 q 605 317 649 335 q 693 353 747 392 z"},"D":{"x_min":0,"x_max":806,"ha":806,"o":"m 252 141 l 251 138 q 240 89 240 78 q 240 62 250 56 q 260 50 286 50 q 347 50 405 77 q 462 104 505 151 q 553 204 581 281 q 609 358 609 438 q 609 545 557 610 q 505 674 420 674 q 390 674 377 661 q 363 648 352 595 z m 125 717 q 155 714 190 713 q 226 712 274 712 q 314 712 383 714 q 453 717 482 717 q 638 717 709 651 q 781 585 781 444 q 781 343 736 249 q 690 156 610 92 q 550 44 467 22 q 383 0 259 0 q 236 0 190 1 q 144 3 121 3 q 95 3 16 -1 q -13 -2 -29 -3 l -29 29 q 24 29 45 45 q 66 61 79 118 l 186 603 l 186 604 q 193 636 193 648 q 193 668 180 676 q 167 684 125 686 z"},"^":{"x_min":0,"x_max":1000,"ha":1000,"o":"m 442 714 l 557 714 l 797 438 l 742 438 l 499 620 l 256 438 l 201 438 z"},"0":{"x_min":0,"x_max":580,"ha":580,"o":"m 358 648 q 326 648 300 623 q 274 598 250 544 q 218 473 200 378 q 182 282 182 184 q 182 123 198 91 q 215 60 247 60 q 278 60 304 91 q 330 123 353 189 q 385 283 403 375 q 420 468 420 544 q 420 596 405 622 q 389 648 358 648 z m 373 699 q 459 699 509 641 q 558 583 558 481 q 558 371 527 271 q 497 172 441 100 q 398 45 341 16 q 284 -13 217 -13 q 127 -13 74 49 q 22 110 22 217 q 22 250 26 282 q 30 313 37 339 q 62 429 86 482 q 111 535 145 578 q 194 640 250 669 q 306 699 373 699 z"},"F":{"x_min":0,"x_max":604,"ha":604,"o":"m 117 717 q 142 716 176 715 q 209 715 286 715 l 628 717 q 620 671 613 626 q 606 581 600 536 l 568 536 q 568 607 543 636 q 518 665 454 665 l 386 665 q 369 665 363 660 q 357 656 352 635 l 300 398 l 362 398 q 418 398 442 416 q 467 433 479 479 l 511 479 q 495 418 482 361 q 469 303 460 248 l 428 248 q 431 266 433 278 q 434 290 434 298 q 434 326 419 337 q 403 348 360 348 l 289 348 l 236 112 q 232 98 231 86 q 229 74 229 66 q 229 45 244 38 q 259 30 306 29 l 306 -3 q 249 0 204 1 q 160 3 130 3 q 79 3 -28 -2 l -37 -3 l -37 29 q 16 29 37 44 q 58 60 71 118 l 178 603 l 178 604 q 185 636 185 648 q 185 668 172 676 q 159 684 117 686 z"},"`":{"x_min":0,"x_max":500,"ha":500,"o":"m 233 723 l 381 542 l 320 542 l 162 655 q 139 672 131 684 q 123 695 123 708 q 123 730 138 744 q 152 759 174 759 q 189 759 203 750 q 217 742 233 723 z"},"k":{"x_min":0,"x_max":569,"ha":569,"o":"m 291 754 l 183 265 l 341 379 q 355 389 363 399 q 371 410 371 419 q 371 430 357 436 q 343 441 312 443 l 312 469 q 348 466 378 465 q 408 464 435 464 q 462 464 492 465 q 521 466 556 469 l 556 443 q 524 440 495 428 q 466 416 419 383 l 339 325 l 363 184 q 371 138 384 115 q 396 92 414 92 q 429 92 444 106 q 460 120 479 150 l 503 137 q 472 61 436 24 q 401 -13 359 -13 q 301 -13 270 42 q 239 97 222 241 l 169 205 l 124 0 l -8 0 l 127 608 q 129 616 132 629 q 137 652 137 659 q 137 671 130 676 q 123 681 105 681 q 99 681 80 680 q 75 679 73 679 l 73 705 z"},"u":{"x_min":0,"x_max":604,"ha":604,"o":"m 237 480 l 170 178 q 166 159 163 145 q 161 130 161 122 q 161 109 168 102 q 175 94 187 94 q 216 94 258 140 q 300 186 338 261 l 383 467 l 515 467 l 445 151 q 442 139 441 133 q 440 127 440 122 q 440 113 445 107 q 450 101 458 101 q 472 101 488 119 q 504 137 521 171 l 546 159 q 511 77 464 32 q 418 -13 369 -13 q 334 -13 315 5 q 296 23 296 56 q 296 69 301 94 q 305 119 317 166 q 251 67 202 27 q 154 -13 103 -13 q 64 -13 42 10 q 19 34 19 74 q 19 85 20 95 q 21 104 23 114 l 72 334 q 74 342 77 355 q 82 378 82 385 q 82 397 75 402 q 68 407 50 407 q 43 407 25 406 q 21 405 18 405 l 18 431 z"},"]":{"x_min":0,"x_max":435,"ha":435,"o":"m 102 714 l 369 714 l 178 -149 l -78 -149 l -78 -115 l 53 -115 l 229 680 l 102 680 z"},"U":{"x_min":0,"x_max":788,"ha":788,"o":"m 123 717 q 178 714 219 713 q 260 712 294 712 q 325 712 362 713 q 399 714 448 717 l 448 686 q 404 683 386 667 q 367 651 355 597 l 280 255 q 275 232 272 214 q 270 196 270 183 q 270 127 304 97 q 339 67 402 67 q 474 67 519 115 q 565 163 587 260 l 657 576 q 663 602 665 619 q 668 637 668 646 q 668 667 653 676 q 638 685 602 686 l 602 717 q 624 714 650 713 q 676 712 710 712 q 743 712 766 713 q 790 714 809 717 l 809 686 q 765 682 745 662 q 725 642 711 575 l 642 263 q 608 110 541 48 q 475 -13 347 -13 q 227 -13 162 37 q 97 86 97 177 q 97 195 100 216 q 102 236 107 258 l 184 603 q 188 621 189 631 q 191 641 191 648 q 191 668 178 676 q 165 684 123 686 z"},"o":{"x_min":0,"x_max":533,"ha":533,"o":"m 310 445 q 277 445 248 420 q 219 396 195 348 q 166 290 150 231 q 134 172 134 122 q 134 80 151 57 q 167 33 197 33 q 227 33 252 59 q 278 84 306 145 q 334 206 349 264 q 364 322 364 371 q 364 408 351 427 q 337 445 310 445 z m 307 480 q 390 480 440 432 q 490 384 490 305 q 490 253 470 200 q 450 146 412 97 q 369 42 314 14 q 259 -13 191 -13 q 98 -13 47 33 q -5 80 -5 164 q -5 211 11 257 q 27 303 57 344 q 105 409 170 445 q 235 480 307 480 z"},"N":{"x_min":0,"x_max":759,"ha":759,"o":"m 104 717 q 148 715 201 715 q 253 714 316 714 l 557 268 l 625 576 q 630 602 633 620 q 636 637 636 646 q 636 667 621 676 q 605 685 570 686 l 570 717 q 592 714 618 713 q 644 712 678 712 q 710 712 733 713 q 756 714 776 717 l 776 686 q 733 682 714 664 q 695 645 679 575 l 549 -13 l 534 -13 l 226 556 l 134 138 q 128 111 125 95 q 123 80 123 70 q 123 48 138 39 q 153 30 189 29 l 189 -3 l 183 -2 q 113 3 81 3 q 62 3 40 2 q 18 0 -18 -3 l -18 29 q 26 34 46 53 q 65 73 80 140 l 185 617 l 167 652 q 157 671 145 678 q 132 684 104 686 z"},"+":{"x_min":0,"x_max":833,"ha":833,"o":"m 367 596 l 466 596 l 466 347 l 709 347 l 709 250 l 466 250 l 466 0 l 367 0 l 367 250 l 124 250 l 124 347 l 367 347 z"},"G":{"x_min":0,"x_max":796,"ha":796,"o":"m 738 702 q 709 558 695 485 l 663 485 q 659 578 616 629 q 574 681 501 681 q 463 681 427 667 q 390 652 359 625 q 291 564 250 470 q 210 377 210 278 q 210 173 255 111 q 301 50 377 50 q 425 50 450 66 q 474 82 483 121 l 510 246 q 515 266 517 279 q 519 292 519 299 q 519 314 508 320 q 496 326 449 328 l 449 360 q 480 357 515 356 q 550 355 594 355 q 639 355 680 356 q 722 357 763 360 l 763 328 l 755 328 q 717 328 700 314 q 684 300 671 239 l 633 70 q 574 29 502 8 q 431 -13 353 -13 q 203 -13 119 64 q 35 141 35 278 q 35 365 71 448 q 107 531 174 597 q 237 660 321 694 q 404 728 494 728 q 546 728 612 711 q 678 695 692 695 q 701 695 712 697 q 723 698 738 702 z"},"q":{"x_min":0,"x_max":533,"ha":533,"o":"m 342 380 q 343 388 344 391 q 344 395 344 398 q 344 420 332 432 q 319 445 297 445 q 276 445 256 429 q 235 413 215 382 q 179 325 159 270 q 139 215 139 174 q 139 135 154 112 q 169 90 195 90 q 230 90 262 124 q 293 158 305 211 z m 384 426 l 468 480 l 496 480 l 357 -144 q 354 -161 353 -166 q 352 -171 352 -173 q 352 -184 361 -189 q 371 -193 400 -195 l 400 -222 q 373 -220 344 -219 q 314 -218 280 -218 q 246 -218 217 -219 q 187 -220 160 -222 l 160 -195 q 194 -194 207 -186 q 219 -177 227 -140 l 280 101 q 241 49 200 25 q 160 0 113 0 q 55 0 22 36 q -11 73 -11 137 q -11 181 5 228 q 21 275 50 320 q 99 395 161 437 q 224 480 284 480 q 322 480 345 467 q 368 455 384 426 z"},"d":{"x_min":0,"x_max":588,"ha":588,"o":"m 344 354 q 343 396 330 419 q 316 443 293 443 q 280 443 266 437 q 252 430 241 419 q 223 401 206 376 q 189 351 173 318 q 151 271 140 229 q 128 186 128 152 q 128 114 142 94 q 156 73 181 73 q 211 73 245 113 q 279 152 317 230 z m 566 754 l 432 151 q 431 147 430 141 q 427 128 427 122 q 427 112 432 107 q 437 101 444 101 q 458 101 475 119 q 492 137 508 171 l 533 159 q 497 74 451 31 q 404 -13 351 -13 q 320 -13 302 4 q 285 21 285 52 q 285 64 287 81 q 289 98 295 129 q 250 54 205 20 q 161 -13 108 -13 q 52 -13 19 23 q -13 60 -13 124 q -13 188 17 260 q 47 331 98 387 q 139 433 186 456 q 232 480 281 480 q 310 480 330 468 q 351 457 362 434 l 400 608 q 401 614 404 625 q 410 651 410 660 q 410 671 403 676 q 396 681 380 681 q 373 681 354 680 q 349 679 346 679 l 346 705 z"},"1":{"x_min":0,"x_max":580,"ha":580,"o":"m 446 699 l 316 112 q 312 95 310 83 q 308 72 308 66 q 308 46 323 38 q 337 30 377 29 l 377 -3 q 362 -2 333 -1 q 243 3 210 3 q 188 3 152 1 q 115 0 63 -3 l 63 29 q 116 29 137 44 q 158 60 171 118 l 259 516 q 260 522 261 527 q 262 532 262 534 q 262 541 259 545 q 255 550 251 550 q 239 550 216 542 q 192 534 159 519 l 148 546 z"},"5":{"x_min":0,"x_max":580,"ha":580,"o":"m 484 719 l 523 719 q 508 673 495 634 q 483 594 472 559 l 190 559 l 149 446 q 184 466 216 474 q 248 483 284 483 q 371 483 426 425 q 481 366 481 273 q 481 224 461 172 q 440 121 405 80 q 363 32 312 9 q 261 -14 197 -14 q 139 -14 91 8 q 43 31 6 75 l 31 97 q 66 67 98 54 q 130 40 163 40 q 231 40 280 97 q 329 154 329 234 q 329 303 288 346 q 248 390 184 390 q 167 390 151 388 q 135 385 120 380 q 110 376 97 371 q 85 366 71 360 l 189 686 l 432 686 q 458 686 466 693 q 475 700 484 719 z"}}}
